<svg width="60" height="60" viewBox="0 0 60 60" fill="none" xmlns="http://www.w3.org/2000/svg">
<path d="M30 56.875C15.175 56.875 3.125 44.825 3.125 30C3.125 15.175 15.175 3.125 30 3.125C44.825 3.125 56.875 15.175 56.875 30C56.875 44.825 44.825 56.875 30 56.875ZM30 6.875C17.25 6.875 6.875 17.25 6.875 30C6.875 42.75 17.25 53.125 30 53.125C42.75 53.125 53.125 42.75 53.125 30C53.125 17.25 42.75 6.875 30 6.875Z" fill="black"/>
<path d="M33.1498 40.6999C32.6748 40.6999 32.1998 40.5249 31.8248 40.1499L22.9998 31.3249C22.2748 30.5999 22.2748 29.3999 22.9998 28.6749L31.8248 19.8499C32.5498 19.1249 33.7498 19.1249 34.4748 19.8499C35.1998 20.5749 35.1998 21.7749 34.4748 22.4999L26.9748 29.9999L34.4748 37.4999C35.1998 38.2249 35.1998 39.4249 34.4748 40.1499C34.1248 40.5249 33.6498 40.6999 33.1498 40.6999Z" fill="black"/>
</svg>
