<svg width="60" height="60" viewBox="0 0 60 60" fill="none" xmlns="http://www.w3.org/2000/svg">
<path d="M30 56.8749C15.175 56.8749 3.125 44.8249 3.125 29.9999C3.125 15.1749 15.175 3.12488 30 3.12488C44.825 3.12488 56.875 15.1749 56.875 29.9999C56.875 44.8249 44.825 56.8749 30 56.8749ZM30 6.87488C17.25 6.87488 6.875 17.2499 6.875 29.9999C6.875 42.7499 17.25 53.1249 30 53.1249C42.75 53.1249 53.125 42.7499 53.125 29.9999C53.125 17.2499 42.75 6.87488 30 6.87488Z" fill="black"/>
<path d="M26.8502 40.6999C26.3752 40.6999 25.9002 40.5249 25.5252 40.1499C24.8002 39.4249 24.8002 38.2249 25.5252 37.4999L33.0252 29.9999L25.5252 22.4999C24.8002 21.7749 24.8002 20.5749 25.5252 19.8499C26.2502 19.1249 27.4502 19.1249 28.1752 19.8499L37.0002 28.6749C37.7252 29.3999 37.7252 30.5999 37.0002 31.3249L28.1752 40.1499C27.8002 40.5249 27.3252 40.6999 26.8502 40.6999Z" fill="black"/>
</svg>
